<svg id="visual" viewBox="0 0 2000 300" width="2000" height="300" xmlns="http://www.w3.org/2000/svg" xmlns:xlink="http://www.w3.org/1999/xlink" version="1.1"><path d="M0 56L47.7 50.7C95.3 45.3 190.7 34.7 285.8 34.3C381 34 476 44 571.2 48.3C666.3 52.7 761.7 51.3 857 49.2C952.3 47 1047.7 44 1143 40.3C1238.3 36.7 1333.7 32.3 1428.8 32.3C1524 32.3 1619 36.7 1714.2 41.7C1809.3 46.7 1904.7 52.3 1952.3 55.2L2000 58L2000 0L1952.3 0C1904.7 0 1809.3 0 1714.2 0C1619 0 1524 0 1428.8 0C1333.7 0 1238.3 0 1143 0C1047.7 0 952.3 0 857 0C761.7 0 666.3 0 571.2 0C476 0 381 0 285.8 0C190.7 0 95.3 0 47.7 0L0 0Z" fill="#F1C40F"></path></svg>