<svg id="visual" viewBox="0 0 2000 850" width="2000" height="850" xmlns="http://www.w3.org/2000/svg" xmlns:xlink="http://www.w3.org/1999/xlink" version="1.1"><path d="M0 582L41.7 602.8C83.3 623.7 166.7 665.3 250 668.2C333.3 671 416.7 635 500 627.5C583.3 620 666.7 641 750 639.2C833.3 637.3 916.7 612.7 1000 598C1083.3 583.3 1166.7 578.7 1250 598.7C1333.3 618.7 1416.7 663.3 1500 687.3C1583.3 711.3 1666.7 714.7 1750 715.2C1833.3 715.7 1916.7 713.3 1958.3 712.2L2000 711L2000 851L1958.3 851C1916.7 851 1833.3 851 1750 851C1666.7 851 1583.3 851 1500 851C1416.7 851 1333.3 851 1250 851C1166.7 851 1083.3 851 1000 851C916.7 851 833.3 851 750 851C666.7 851 583.3 851 500 851C416.7 851 333.3 851 250 851C166.7 851 83.3 851 41.7 851L0 851Z" fill="#c62368"></path><path d="M0 654L41.7 646.7C83.3 639.3 166.7 624.7 250 615.5C333.3 606.3 416.7 602.7 500 607.5C583.3 612.3 666.7 625.7 750 629C833.3 632.3 916.7 625.7 1000 640.3C1083.3 655 1166.7 691 1250 692.5C1333.3 694 1416.7 661 1500 646C1583.3 631 1666.7 634 1750 645.5C1833.3 657 1916.7 677 1958.3 687L2000 697L2000 851L1958.3 851C1916.7 851 1833.3 851 1750 851C1666.7 851 1583.3 851 1500 851C1416.7 851 1333.3 851 1250 851C1166.7 851 1083.3 851 1000 851C916.7 851 833.3 851 750 851C666.7 851 583.3 851 500 851C416.7 851 333.3 851 250 851C166.7 851 83.3 851 41.7 851L0 851Z" fill="#dd375b"></path><path d="M0 654L41.7 652.5C83.3 651 166.7 648 250 654.2C333.3 660.3 416.7 675.7 500 691C583.3 706.3 666.7 721.7 750 716.2C833.3 710.7 916.7 684.3 1000 667.5C1083.3 650.7 1166.7 643.3 1250 639.3C1333.3 635.3 1416.7 634.7 1500 652.7C1583.3 670.7 1666.7 707.3 1750 720.5C1833.3 733.7 1916.7 723.3 1958.3 718.2L2000 713L2000 851L1958.3 851C1916.7 851 1833.3 851 1750 851C1666.7 851 1583.3 851 1500 851C1416.7 851 1333.3 851 1250 851C1166.7 851 1083.3 851 1000 851C916.7 851 833.3 851 750 851C666.7 851 583.3 851 500 851C416.7 851 333.3 851 250 851C166.7 851 83.3 851 41.7 851L0 851Z" fill="#ee504d"></path><path d="M0 766L41.7 759.8C83.3 753.7 166.7 741.3 250 743C333.3 744.7 416.7 760.3 500 757.5C583.3 754.7 666.7 733.3 750 731.5C833.3 729.7 916.7 747.3 1000 748.8C1083.3 750.3 1166.7 735.7 1250 722.5C1333.3 709.3 1416.7 697.7 1500 691.8C1583.3 686 1666.7 686 1750 689.7C1833.3 693.3 1916.7 700.7 1958.3 704.3L2000 708L2000 851L1958.3 851C1916.7 851 1833.3 851 1750 851C1666.7 851 1583.3 851 1500 851C1416.7 851 1333.3 851 1250 851C1166.7 851 1083.3 851 1000 851C916.7 851 833.3 851 750 851C666.7 851 583.3 851 500 851C416.7 851 333.3 851 250 851C166.7 851 83.3 851 41.7 851L0 851Z" fill="#f96c3d"></path><path d="M0 703L41.7 717.8C83.3 732.7 166.7 762.3 250 771.5C333.3 780.7 416.7 769.3 500 760.5C583.3 751.7 666.7 745.3 750 736.3C833.3 727.3 916.7 715.7 1000 725.3C1083.3 735 1166.7 766 1250 771.8C1333.3 777.7 1416.7 758.3 1500 743.7C1583.3 729 1666.7 719 1750 712.8C1833.3 706.7 1916.7 704.3 1958.3 703.2L2000 702L2000 851L1958.3 851C1916.7 851 1833.3 851 1750 851C1666.7 851 1583.3 851 1500 851C1416.7 851 1333.3 851 1250 851C1166.7 851 1083.3 851 1000 851C916.7 851 833.3 851 750 851C666.7 851 583.3 851 500 851C416.7 851 333.3 851 250 851C166.7 851 83.3 851 41.7 851L0 851Z" fill="#fd892b"></path><path d="M0 815L41.7 813.7C83.3 812.3 166.7 809.7 250 802C333.3 794.3 416.7 781.7 500 779.2C583.3 776.7 666.7 784.3 750 789C833.3 793.7 916.7 795.3 1000 798.3C1083.3 801.3 1166.7 805.7 1250 799.7C1333.3 793.7 1416.7 777.3 1500 775.7C1583.3 774 1666.7 787 1750 783.3C1833.3 779.7 1916.7 759.3 1958.3 749.2L2000 739L2000 851L1958.3 851C1916.7 851 1833.3 851 1750 851C1666.7 851 1583.3 851 1500 851C1416.7 851 1333.3 851 1250 851C1166.7 851 1083.3 851 1000 851C916.7 851 833.3 851 750 851C666.7 851 583.3 851 500 851C416.7 851 333.3 851 250 851C166.7 851 83.3 851 41.7 851L0 851Z" fill="#faa719"></path><path d="M0 806L41.7 809.7C83.3 813.3 166.7 820.7 250 823.7C333.3 826.7 416.7 825.3 500 825C583.3 824.7 666.7 825.3 750 826C833.3 826.7 916.7 827.3 1000 819.3C1083.3 811.3 1166.7 794.7 1250 792.7C1333.3 790.7 1416.7 803.3 1500 807.3C1583.3 811.3 1666.7 806.7 1750 809.2C1833.3 811.7 1916.7 821.3 1958.3 826.2L2000 831L2000 851L1958.3 851C1916.7 851 1833.3 851 1750 851C1666.7 851 1583.3 851 1500 851C1416.7 851 1333.3 851 1250 851C1166.7 851 1083.3 851 1000 851C916.7 851 833.3 851 750 851C666.7 851 583.3 851 500 851C416.7 851 333.3 851 250 851C166.7 851 83.3 851 41.7 851L0 851Z" fill="#f1c40f"></path></svg>