<svg id="visual" viewBox="0 0 100 100" width="100" height="100" xmlns="http://www.w3.org/2000/svg" xmlns:xlink="http://www.w3.org/1999/xlink" version="1.1"><g transform="translate(48.35965873071953 53.119827407012195)"><path d="M20.6 -35.4C27.8 -31.4 35.5 -28.2 39.9 -22.4C44.2 -16.7 45.1 -8.3 44.7 -0.3C44.2 7.8 42.5 15.7 38.7 22.5C35 29.2 29.2 35 22.5 37.3C15.7 39.6 7.8 38.6 -0.2 38.9C-8.2 39.2 -16.3 40.8 -22.4 38C-28.5 35.3 -32.4 28.1 -35.8 21.1C-39.2 14 -42.1 7 -41.4 0.4C-40.7 -6.2 -36.4 -12.3 -32.9 -19.4C-29.5 -26.5 -27 -34.5 -21.7 -39.5C-16.3 -44.6 -8.2 -46.8 -0.8 -45.5C6.7 -44.2 13.3 -39.4 20.6 -35.4" fill="#BB004B"></path></g></svg>